<svg xmlns="http://www.w3.org/2000/svg" viewBox="0 0 1563.59 601.83"><defs><style>.cls-1,.cls-2{fill:#662483;}.cls-1{opacity:0.27;}</style></defs><g id="whole"><path class="cls-1" d="M192,279.21l95.62,107.31c-6,5.23-41.8,37.2-42.65,88.74-1.15,69,61.36,105.17,64,106.63,35.66,19.83,84.91,23.75,123.14-1.38,23.21-15.26,44.48-47.92,46.77-48.15q37.84,45.74,75.67,91.49l-24.07,24.76a319.42,319.42,0,0,0,85.3,64c90.28,46.33,177.88,35.76,212.56,29.58l3.44,7.56L1741.83,603.9q6.89-16.51,13.76-33-70.5-37.15-141-74.29l-337.75,53.65q1.37,4.47,2.75,8.94l-79.8,9.64,28.89-55c9.77,3.83,35.1,12.22,64.66,4.13,39.66-10.85,70.91-46.95,75-88.74.38-4,4-48.48-28.21-79.79a91.5,91.5,0,0,0-28.2-18.58l20.64-38.52,185.73,90.11,57.78-114.19-97.68-45.4,14.45-22.7-97-46.09-38.52,77.74L1314,215.24q7.92-29.58,15.82-59.16a251.8,251.8,0,0,0-94.93-6.19c-58.31,7.47-99.21,34.06-116.25,45.4-7.31,4.86-13.16,9.24-17.2,12.38L829.68,427.11c-2.89,3.52-19.92,23.61-48.84,25.45-36.13,2.3-58.17-26-59.85-28.2L549.71,213.86l-35.09-26.14q-12.72,24.76-25.45,49.53Z" transform="translate(-192 -147.9)"/></g><g id="N309"><path class="cls-2" d="M503.31,274.47c29.05,40.36,63.14,80.71,92.18,121.07,22-15.59,39-31.18,61-46.78L544.59,212.1Z" transform="translate(-192 -147.9)"/></g><g id="N310"><ellipse class="cls-2" cx="666.34" cy="410.33" rx="42.23" ry="70.88" transform="translate(-300.76 370.13) rotate(-39.53)"/></g><g id="Main_Atrium" data-name="Main Atrium"><circle class="cls-2" cx="177.69" cy="329.67" r="107.94"/></g><g id="N311"><path class="cls-2" d="M664.36,480.61c9.23,10.45,24.09,27.12,50.14,38.75a155.29,155.29,0,0,0,84.61,11.7q-7.23-37.5-14.45-75a54.2,54.2,0,0,1-61.91-22C702.57,449.66,684.54,465,664.36,480.61Z" transform="translate(-192 -147.9)"/></g><g id="N318"><path class="cls-2" d="M836.94,568.89l-15.82-45.4-18.57,4.82q-6.88-35.08-13.76-70.17a98.17,98.17,0,0,0,37.83-16.51l47.47,57.78-8.94,6.2,28.2,33a95.71,95.71,0,0,1-56.41,30.27Z" transform="translate(-192 -147.9)"/></g><g id="N317"><path class="cls-2" d="M764.94,536.1q-2.3,20.64-4.58,41.28a113.54,113.54,0,0,0,71.54-8.26q-6.2-21.33-12.38-42.65a87.77,87.77,0,0,1-54.58,9.63Z" transform="translate(-192 -147.9)"/></g><g id="N318a"><path class="cls-2" d="M872.25,505.26c4.74,6.42,11.78,13.42,16.51,19.84l32.11-22.48q-9.18-11.91-18.35-23.84C893.2,487.8,881.58,496.24,872.25,505.26Z" transform="translate(-192 -147.9)"/></g><g id="N319"><path class="cls-2" d="M905.73,475.57l17,23.84,7.34-3.66,7.79,10.08,10.55-9.63q-14-17.88-28-35.77Z" transform="translate(-192 -147.9)"/></g><g id="N320"><path class="cls-2" d="M947.92,456.31,967.64,482l65.12-52.74L1002,392.56l-43.11,36.23L972.23,449l-9.17,6-5-5.5Z" transform="translate(-192 -147.9)"/></g><g id="N325"><path class="cls-2" d="M1041,267.59,1074.5,313l5.5-4.12,9.17,12.84a647,647,0,0,1,50.91-40.36c15.54-11.1,30.62-20.83,44.94-29.35q-17-34.86-33.94-69.71A679.46,679.46,0,0,0,1041,267.59Z" transform="translate(-192 -147.9)"/></g><g id="N328"><path class="cls-2" d="M1154.52,180.46q16.29,33.82,32.56,67.64a184.41,184.41,0,0,1,60.77-16.74l-4.59-59.16,3-.91q2.52,29.93,5,59.84a121.64,121.64,0,0,1,60.53,6.42l5.73-18.34-6.65-3.44q7-28,14-56a244.61,244.61,0,0,0-170.37,20.64Z" transform="translate(-192 -147.9)"/></g><g id="N331"><path class="cls-2" d="M1363.87,233.84q17.39-35.44,34.78-70.88l84,39.63q-5.31,11.29-10.61,22.57l14.15,6.66q-12.24,24.87-24.46,49.76Z" transform="translate(-192 -147.9)"/></g><g id="N334"><path class="cls-2" d="M1466.9,287.08l25.38-52.58,30.57,14.06-26,52.28Z" transform="translate(-192 -147.9)"/></g><g id="N336"><path class="cls-2" d="M1493.2,318l41,19.87q16.65-33.78,33.32-67.56l-40.66-20.49Z" transform="translate(-192 -147.9)"/></g><g id="N329"><path class="cls-2" d="M1335.13,288.31c13.35,6.52,28.23,14.26,41.58,20.79,5.81-11.62,11.62-25.07,17.43-36.69-13.66-7.34-27.31-12.84-41-20.18C1347.67,264.66,1340.64,275.87,1335.13,288.31Z" transform="translate(-192 -147.9)"/></g><g id="N332"><path class="cls-2" d="M1381.15,310.78c8.46,4.28,18.14,10.39,26.6,14.67l19.56-36.38-30-14.37C1392.36,287.34,1386.14,298.14,1381.15,310.78Z" transform="translate(-192 -147.9)"/></g><g id="N339"><path class="cls-2" d="M1205,469a80,80,0,0,1-16.81-40.05,82.82,82.82,0,0,1,7-43.41,85.15,85.15,0,0,1,32.41-36.69l28.74,16.2Z" transform="translate(-192 -147.9)"/></g><g id="N340"><path class="cls-2" d="M1236.08,417q11.76-25.83,23.54-51.67l101.2,49.53a67,67,0,0,1-14.68,57.17Z" transform="translate(-192 -147.9)"/></g><g id="N341"><path class="cls-2" d="M1208.25,472.05a59.5,59.5,0,0,0,28.13,19l-7,11.92a80,80,0,0,0,21.71,8.87c35.66,8.67,65-11,69.09-13.76a88.75,88.75,0,0,0,22.93-23.24l-110.06-55Z" transform="translate(-192 -147.9)"/></g><g id="N346"><path class="cls-2" d="M840.15,659.46Q838.1,642.73,836,626l78-11q2.06,17.88,4.12,35.77Z" transform="translate(-192 -147.9)"/></g><g id="N345"><path class="cls-2" d="M820,639.75l10.55-2.3,6.42,28,88-13.3q-1.83-16.29-3.67-32.56h16.06l14.67,99.51L836,738.8Q828,689.27,820,639.75Z" transform="translate(-192 -147.9)"/></g><g id="N344"><path class="cls-2" d="M940.43,618.5l20.49-2.45q2,13.76,4,27.52l110.68-15.9q6,37.46,11.92,74.9L957.86,723.36Z" transform="translate(-192 -147.9)"/><path class="cls-2" d="M1078.17,609q6.87,45.4,13.75,90.8l43.11-7.34,41.73-75.21-7.79-45.4-74.29,11.93.45,10.54-12.84.92q1.38,6.42,2.75,12.84Z" transform="translate(-192 -147.9)"/></g></svg>