<svg id="Layer_2" data-name="Layer 2" xmlns="http://www.w3.org/2000/svg" viewBox="0 0 1563.59 601.83"><defs><style>.cls-1{fill:#662483;}</style></defs><path class="cls-1" d="M193.07,279.29,288.69,386.6c-6,5.22-41.8,37.2-42.65,88.74-1.15,69,61.36,105.17,64,106.62,35.66,19.83,84.91,23.75,123.14-1.37,23.21-15.26,34.76-36.23,39.89-47.47l6.88-.69,75.67,91.49-24.07,24.77a319.21,319.21,0,0,0,85.3,64C707.1,759,794.7,748.43,829.38,742.24l3.44,7.57L1742.9,604q6.88-16.5,13.76-33l-141-74.3-337.75,53.66q1.36,4.47,2.75,8.94l-79.8,9.63,28.89-55c9.77,3.83,35.1,12.21,64.66,4.13,39.66-10.85,70.91-46.95,75-88.74.38-4,4-48.48-28.21-79.8a91.25,91.25,0,0,0-28.2-18.57l20.64-38.52,185.73,90.11,57.78-114.19-97.68-45.4q7.21-11.35,14.45-22.7l-97-46.09-38.52,77.73L1315,215.31q7.92-29.58,15.82-59.16a251.8,251.8,0,0,0-94.93-6.19c-58.31,7.47-99.21,34.06-116.25,45.4-7.31,4.87-13.16,9.25-17.2,12.39L830.75,427.18c-2.89,3.52-19.92,23.61-48.84,25.46-36.13,2.3-58.17-26-59.85-28.21L550.78,213.94,515.69,187.8Q503,212.57,490.24,237.32Z" transform="translate(-193.07 -147.98)"/></svg>