<svg xmlns="http://www.w3.org/2000/svg" viewBox="0 0 1282.13 593.53"><defs><style>.cls-1,.cls-2{fill:#77378d;}.cls-2{opacity:0.6;}.cls-3{fill:#769343;}.cls-4{fill:#196d9b;}.cls-5{fill:#4a337e;}</style></defs><g id="Layer_2" data-name="Layer 2"><polyline class="cls-1" points="-261.4 -140.16 -261.4 -140.16 -261.4 -140.16"/><path class="cls-2" d="M1010.18,557.08C988.47,595.91,967.68,638,946,676.78l569.58-91.72q2.07-4.12,4.13-8.26l12.84-1.37,11-17.89-132.08-71.08C1278,511.07,1143.63,532.47,1010.18,557.08Z" transform="translate(-261.4 -140.16)"/><path class="cls-2" d="M1318.35,370.83l55.38-111.9-94.15-44q6.45-12.84,12.92-25.68l-91.39-44.94q-7.38,16.5-14.77,33a204.5,204.5,0,0,0-56.3-21.1q.45-5.5.92-11A322.8,322.8,0,0,0,866,215.82L783,292,646.33,408.43c-6.58,7.16-24.86,25-53.54,29.35-7.69,1.16-22.73,3.24-39.69-3.67-24.74-10.08-35.27-31.83-37.85-37.6L337.1,192l-14.77-10.09L261.4,280,392.48,451.54l-96,75.67,30.46,44.71,36.69-27.51,24.24,25.45q-29.78,31.29-59.54,62.6a296.19,296.19,0,0,0,70.61,58.47c59.44,35.25,117.24,39.41,155.78,42,32.52,2.15,56.52-.17,104.54-4.82,45.5-4.4,72.54-9.55,178.61-28.2C879,692.64,914,686.56,940.34,682l90.69-185a100.92,100.92,0,0,0,54.7,5.5c40.5-7.41,61.43-37.83,65.07-43.33,7.83-11.82,21.71-38.29,15.24-71.55-8.11-41.64-41.87-61.68-47.08-64.66q8.31-20.52,16.61-41Zm-223.67-62.6a103.68,103.68,0,0,0-41.28-2.3c-7.89,1.17-33.52,5.35-55.49,27.06a102.73,102.73,0,0,0-25.68,44.94c-2.8,10.21-8.2,36,3.21,65.12a103.46,103.46,0,0,0,29.81,41.28q-17,35.78-33.94,71.54L604,615.49a256.72,256.72,0,0,1-43.56.46c-17.94-1.35-54.15-4.43-94-25.69a219.31,219.31,0,0,1-74.29-65.12l38.52-27.51a191.58,191.58,0,0,0,69.25,53.65c66.15,29.86,128.22,10.81,145.84,4.59,19.89-7,34.66-17.07,64.2-37.15,38.48-26.15,54.05-41.7,116-94.93,108.89-93.51,77.55-59.88,119.23-98.14,22.71-20.84,38.09-36.4,66-47.69,11-4.46,45.06-17.69,85.76-9.17a132,132,0,0,1,15.13,4.12Q1103.39,290.58,1094.68,308.23Z" transform="translate(-261.4 -140.16)"/></g><g id="N405"><path class="cls-1" d="M441.82,404.06l43.57-31.64-89-104.1-41.27,32.1Z" transform="translate(-261.4 -140.16)"/></g><g id="N403"><path class="cls-1" d="M267.94,277.11c14.21,20.64,32.1,41.27,46.31,61.91l29.36-23.39-57.33-71.08C281.39,255.4,272.83,266.25,267.94,277.11Z" transform="translate(-261.4 -140.16)"/></g><g id="N402"><path class="cls-1" d="M319.76,249.13l34.39,42.65,39.44-31.64-48.15-56.41Z" transform="translate(-261.4 -140.16)"/></g><g id="N407"><path class="cls-1" d="M445.64,409.18l28.44,33.48,43.1-34.85-28.43-33.94Z" transform="translate(-261.4 -140.16)"/></g><g id="N410"><path class="cls-1" d="M476.37,449.31a126.29,126.29,0,0,0,44,35.77l25.23-50.9a78.18,78.18,0,0,1-26.14-22.47Z" transform="translate(-261.4 -140.16)"/></g><g id="N412"><path class="cls-1" d="M529.57,486a82.6,82.6,0,0,0,50.9,13.3q-1.14-28.44-2.29-56.87a61.09,61.09,0,0,1-27.52-5.5Z" transform="translate(-261.4 -140.16)"/></g><g id="N414"><path class="cls-1" d="M588.27,498.84a88.43,88.43,0,0,0,53.19-14.67q-13.51-24.76-27.05-49.53a69.79,69.79,0,0,1-14.22,5,69,69,0,0,1-17,1.84Q585.74,470.17,588.27,498.84Z" transform="translate(-261.4 -140.16)"/></g><g id="N415"><path class="cls-1" d="M624,435.86l25.22,45.86L761.62,395.5l-36.69-46.77Z" transform="translate(-261.4 -140.16)"/></g><g id="N419"><path class="cls-1" d="M732.27,348.65q16.5,21.33,33,42.65l110.06-88.05-39.44-42.19Z" transform="translate(-261.4 -140.16)"/></g><g id="N424"><path class="cls-1" d="M840.5,252.11l35.31,43.11L957.9,230.1l-32.56-46.32c-15,10.09-29.43,20-43.72,31.49A538.79,538.79,0,0,0,840.5,252.11Z" transform="translate(-261.4 -140.16)"/></g><g id="Architecture_2nd_Floor" data-name="Architecture 2nd Floor"><path class="cls-1" d="M967.41,660.5l46.78-93.56,388.89-69.7,128.41,62.37c-.92,3-1.83,6.11-2.75,9.17l-18.8,1.37q-1.85,4.82-3.67,9.63Z" transform="translate(-261.4 -140.16)"/></g><g id="Staff_Areas" data-name="Staff Areas"><path class="cls-1" d="M997.93,350.42c-14.83,20.94-15.08,42.74-15.19,52.13a94.7,94.7,0,0,0,4.91,31.8,90,90,0,0,0,27.31,39l-34.87,71.6,18.06-1.82,31.5-59.1a94.31,94.31,0,0,0,29.71,6.28c7.3.33,35.29,1.16,61-18.83,8.15-6.35,24.84-21.62,31.56-47.49,2.1-8.08,6.93-31.46-4.62-57.19s-32.5-37.94-41.53-42.35S1076,311.81,1050.22,317C1043.49,318.37,1016.13,324.73,997.93,350.42Z" transform="translate(-261.4 -140.16)"/></g><g id="N426b"><path class="cls-1" d="M931.3,184.7l11.46,15.59,22.48-10.54-9.18-22.48Z" transform="translate(-261.4 -140.16)"/></g><g id="N426a"><path class="cls-1" d="M962.48,227.35l17-8.71L968,193.87,944.6,204Z" transform="translate(-261.4 -140.16)"/></g><g id="N426"><path class="cls-1" d="M962,168.65l23.23,50.29a206.87,206.87,0,0,1,92.49-17.42l-1.23-34.86-35.16.61q-1.53-11-3-22A180.79,180.79,0,0,0,962,168.65Z" transform="translate(-261.4 -140.16)"/></g><g id="N426a-2" data-name="N426a"><path class="cls-1" d="M1042.28,147.86l1.83,17.43,33.18-.16.46-18.95Z" transform="translate(-261.4 -140.16)"/></g><g id="SOC_Office" data-name="SOC Office"><path class="cls-3" d="M1081,176.29q.32-15.51.61-31l45.56,3.82-1.53,8.26,4.13,1.68q-2.91,13.14-5.81,26.29Z" transform="translate(-261.4 -140.16)"/></g><g id="Tech_Support" data-name="Tech Support"><path class="cls-3" d="M995.79,237.15l16.05,38.53a113,113,0,0,1,52.74-12.39q-.46-20.63-.92-41.27a156.88,156.88,0,0,0-67.87,15.13Z" transform="translate(-261.4 -140.16)"/></g><g id="N432a"><path class="cls-1" d="M1127.43,183.78q2.74-12.22,5.5-24.46l43,15.6q-5.28,12.69-10.55,25.37Z" transform="translate(-261.4 -140.16)"/></g><g id="Staff_Room" data-name="Staff Room"><path class="cls-3" d="M1135.22,273.67,1150.36,240l7.79,2.75,19.49-38.29-7.56-4.13q5-10.89,10.09-21.78l8.25,3,16-32.56,83.47,41-12.39,26.37L1368,260.83l-50.44,103.41Z" transform="translate(-261.4 -140.16)"/></g><g id="Lift_1" data-name="Lift 1"><path class="cls-4" d="M386.94,427.76l14.37,16.81,16.51-11.92-15-17.43Z" transform="translate(-261.4 -140.16)"/></g><g id="Lift_2" data-name="Lift 2"><path class="cls-4" d="M319.68,531.1c3.06,4.17,7.34,10.8,10.4,15q10.23-8.26,20.48-16.51l-12.84-13.46C330.69,521.31,325.29,525.29,319.68,531.1Z" transform="translate(-261.4 -140.16)"/></g><g id="Lift_3" data-name="Lift 3"><path class="cls-4" d="M1112.1,534.65c.63,3.56,1.27,9,1.89,12.59l18.09-3.73q-2-6.21-3.92-12.41C1122.1,532.08,1117.45,532.83,1112.1,534.65Z" transform="translate(-261.4 -140.16)"/></g><g id="Toilets"><path class="cls-5" d="M799.22,399.32c6.12,7.42,13.15,15.52,19.26,22.93l17.43-14.67L825.36,397l-6,5.51q-5.39-5.62-10.78-11.24C805.8,394.2,802.05,396.42,799.22,399.32Z" transform="translate(-261.4 -140.16)"/></g><g id="Toilets_2" data-name="Toilets 2"><path class="cls-5" d="M825.36,375.94,835,388.09l-7.56,7.34,9.86,10.32,18.34-14.45-19.49-24.08Z" transform="translate(-261.4 -140.16)"/></g><g id="Engineering_Office" data-name="Engineering Office"><path class="cls-1" d="M348.19,636.93l68.68-74.58a214.71,214.71,0,0,0,94.34,55.83,217.7,217.7,0,0,0,99.54,4.26C692.26,606.9,755.22,602,787.68,595.59c42.82-8.5,105.33-19.51,183.44-28.13q-27.81,55-55.64,109.95c-26.61,4.62-183.11,31.7-292.12,46a346.39,346.39,0,0,1-67,3c-59.2-3.21-102.35-21.19-116.06-27.27A317.18,317.18,0,0,1,348.19,636.93Z" transform="translate(-261.4 -140.16)"/></g></svg>